# xmcd
# 
# Track frame offsets:
#     150
#     19665
#     39157
#     57332
#     73290
#     88417
#     109490
#     128050
#     144110
#     161040
#     182692
#     199512
#     202951
# 
# Disc length: 2966
# 
# Revision: 3
# Processed by: cddbd v1.5.2PL0 Copyright (c) Steve Scherf et al.
# Submitted via: fre:ac v1.0.31
# 
DISCID=b60b940d
DTITLE=The Doobie Brothers - Southbound
DYEAR=2014
DGENRE=Rock/Pop
TTITLE0=Black Water (With Zac Brown Band)
TTITLE1=Listen To The Music (With Blake Shelton And Hunter Hayes On Guitar)
TTITLE2=What A Fool Believes (With Sara Evans)
TTITLE3=Long Train Runnin' (With Toby Keith And Huey Lewis On Harmonica)
TTITLE4=China Grove (With Chris Young)
TTITLE5=Takin' It To The Streets (With Love And Theft)
TTITLE6=Jesus Is Just Alright (With Casey James)
TTITLE7=Rockin' Down The Highway (With Brad Paisley)
TTITLE8=Take Me In Your Arms (Rock Me) (With Tyler Farr)
TTITLE9=South City Midnight Lady (With Jerrod Niemann)
TTITLE10=You Belong To Me (With Amanda Sudano Ramirez and Vince Gill)
TTITLE11=Nobody Intro
TTITLE12=Nobody (With Charlie Worsham)
EXTD=YEAR: 2014
EXTT0=
EXTT1=
EXTT2=
EXTT3=
EXTT4=
EXTT5=
EXTT6=
EXTT7=
EXTT8=
EXTT9=
EXTT10=
EXTT11=
EXTT12=
PLAYORDER=
